<?xml version="1.0" standalone="no"?>
<!DOCTYPE svg PUBLIC "-//W3C//DTD SVG 20010904//EN"
 "http://www.w3.org/TR/2001/REC-SVG-20010904/DTD/svg10.dtd">
<svg version="1.0" xmlns="http://www.w3.org/2000/svg"
 width="177.000000pt" height="103.000000pt" viewBox="0 0 177.000000 103.000000"
 preserveAspectRatio="xMidYMid meet">

<g transform="translate(0.000000,103.000000) scale(0.100000,-0.100000)"
fill="#000000" stroke="none">
<path d="M945 900 c-9 -10 -20 -39 -22 -64 -5 -39 -2 -48 21 -69 48 -45 -16
-53 -79 -10 -52 36 -102 35 -180 -3 -69 -33 -92 -66 -71 -99 27 -41 100 -26
94 19 -3 21 -48 37 -48 18 0 -5 8 -9 18 -8 9 0 17 -5 17 -13 0 -8 -8 -19 -17
-25 -40 -24 -76 35 -41 66 25 23 118 58 151 58 16 0 49 -13 75 -30 26 -16 52
-30 57 -30 5 0 32 -5 60 -11 44 -9 50 -14 50 -36 0 -25 51 -83 73 -83 6 0 18
-7 28 -16 17 -15 18 -13 18 40 0 78 -26 111 -81 102 -53 -9 -66 2 -31 25 40
27 57 24 114 -21 40 -32 60 -40 95 -42 24 -1 51 -2 60 -2 40 -2 55 134 20 173
-15 16 -23 17 -79 6 -67 -12 -111 -36 -128 -66 -5 -11 -18 -19 -28 -19 -10 0
-40 -9 -66 -21 -56 -25 -68 -19 -26 12 42 31 41 71 -3 126 -33 42 -34 42 -51
23z m13 -24 c-3 -15 0 -27 8 -30 23 -9 16 -28 -8 -22 -16 4 -14 2 5 -6 31 -13
36 -28 10 -29 -16 0 -16 -1 1 -8 14 -5 16 -10 7 -15 -19 -12 -51 23 -51 55 0
31 16 79 26 79 3 0 4 -11 2 -24z m62 -73 c0 -12 -5 -25 -11 -29 -7 -4 -9 0 -5
12 3 11 -3 37 -14 59 l-21 40 26 -30 c14 -16 25 -40 25 -52z m210 19 c0 -8
-54 -52 -65 -52 -12 0 -3 34 13 46 19 15 52 18 52 6z m28 -14 c-8 -11 -24 -25
-37 -29 -20 -8 -20 -6 6 21 33 34 52 39 31 8z m77 -12 c4 -19 5 -42 2 -53 -3
-10 -5 -1 -6 20 0 20 -6 37 -12 37 -5 0 -7 5 -4 10 3 6 4 10 0 10 -3 0 -10
-11 -15 -25 -6 -15 -17 -25 -30 -25 -26 0 -25 8 2 37 32 34 56 30 63 -11z
m-13 -96 c-2 -3 -7 0 -9 6 -2 6 -11 20 -19 30 -15 18 -15 18 -9 -1 16 -44 17
-55 6 -55 -6 0 -11 11 -11 24 0 13 -10 31 -22 40 l-23 17 23 -5 c15 -3 29 2
40 15 16 19 17 18 23 -23 4 -24 4 -45 1 -48z m-175 60 c-3 -11 -1 -23 4 -26 5
-3 9 2 9 10 0 25 55 20 84 -8 62 -57 3 -77 -77 -26 -44 28 -56 47 -40 63 13
14 25 6 20 -13z m-27 -82 c21 -23 28 -64 9 -53 -6 4 -8 13 -5 21 4 9 -2 14
-15 14 -14 0 -19 5 -16 14 4 10 1 13 -7 10 -8 -3 -17 -1 -21 5 -12 21 34 11
55 -11z m-56 -4 c9 -3 17 -18 17 -33 1 -17 3 -20 6 -8 6 22 23 12 23 -14 0
-10 5 -19 10 -19 6 0 10 -5 10 -10 0 -7 -8 -7 -22 1 -37 19 -68 51 -68 71 0
20 1 21 24 12z"/>
<path d="M1050 654 c0 -8 5 -12 10 -9 6 4 8 11 5 16 -9 14 -15 11 -15 -7z"/>
<path d="M145 601 c-58 -27 -86 -62 -92 -115 -4 -34 -1 -54 14 -78 18 -30 18
-36 6 -67 -13 -31 -13 -37 5 -60 13 -18 30 -27 57 -29 75 -7 131 37 170 134
18 44 30 60 46 62 16 3 20 0 16 -12 -3 -8 -12 -42 -18 -75 -20 -94 11 -136 69
-95 12 8 22 22 22 31 0 15 -2 14 -18 0 -10 -10 -22 -17 -25 -17 -12 0 -7 75 8
128 13 43 22 55 53 71 63 32 90 76 67 107 -12 18 -15 18 -49 1 -22 -10 -48
-36 -66 -64 -19 -29 -41 -51 -56 -55 -25 -7 -26 -6 -19 30 4 20 15 53 26 74
10 20 19 40 19 43 0 3 -44 5 -97 5 -74 0 -108 -5 -138 -19z m162 1 c8 -5 5
-26 -12 -77 -19 -57 -28 -71 -47 -73 -41 -5 -92 -24 -120 -44 -27 -18 -27 -18
-37 1 -15 28 -14 77 4 111 19 37 73 70 133 80 65 11 66 11 79 2z m203 -41 c0
-19 -58 -76 -67 -67 -10 10 41 86 59 86 4 0 8 -9 8 -19z m-255 -177 c-33 -86
-99 -139 -144 -115 -22 12 -32 52 -19 75 7 12 18 15 49 10 26 -4 39 -3 39 5 0
6 -13 11 -30 11 -38 0 -38 11 0 33 27 17 110 37 119 30 2 -1 -4 -23 -14 -49z"/>
<path d="M924 575 c-21 -33 -60 -146 -76 -224 -12 -62 -12 -64 11 -82 58 -47
150 3 151 82 0 57 -40 77 -88 43 -12 -8 -22 -11 -22 -5 0 18 62 181 71 187 16
9 10 24 -11 24 -11 0 -27 -11 -36 -25z m36 -257 c-16 -47 -45 -61 -66 -33 -16
21 0 69 29 90 19 13 23 13 36 0 14 -13 14 -20 1 -57z"/>
<path d="M1322 543 c-32 -76 -64 -194 -66 -242 -1 -56 21 -65 60 -26 27 27 26
48 -1 25 -9 -7 -18 -10 -21 -7 -7 6 30 139 62 226 29 76 28 71 5 71 -13 0 -25
-15 -39 -47z"/>
<path d="M1426 494 c-4 -10 -2 -22 3 -27 14 -14 43 0 39 20 -4 24 -34 28 -42
7z"/>
<path d="M514 391 c-18 -11 -37 -34 -43 -52 -10 -29 -9 -37 8 -59 15 -20 27
-25 60 -24 41 1 82 26 68 41 -4 3 -13 1 -19 -5 -14 -14 -64 -16 -72 -3 -3 5
14 14 39 20 29 7 51 20 61 36 16 24 15 27 -1 45 -23 25 -61 25 -101 1z m71
-11 c10 -16 -14 -49 -41 -56 -32 -8 -38 -1 -23 28 19 36 50 50 64 28z"/>
<path d="M665 386 c-24 -24 -33 -46 -19 -46 4 0 13 8 20 18 12 15 13 15 14 1
0 -9 -7 -35 -14 -57 -15 -40 -8 -61 14 -47 6 4 26 31 45 61 34 52 38 55 67 49
34 -8 54 10 36 32 -18 22 -45 14 -76 -22 l-31 -34 -3 31 c-4 41 -21 46 -53 14z"/>
<path d="M1083 400 c-12 -5 -29 -23 -38 -40 -35 -68 15 -133 76 -98 16 10 29
13 29 7 0 -5 7 -12 16 -16 16 -6 64 32 64 51 0 6 -5 5 -12 -2 -30 -30 -33 -11
-12 72 5 22 3 26 -15 26 -12 0 -21 -5 -21 -11 0 -6 -7 -3 -16 5 -17 18 -38 19
-71 6z m67 -25 c28 -34 -24 -120 -57 -93 -19 16 -16 52 8 82 23 30 32 32 49
11z"/>
<path d="M1375 380 c-32 -34 -27 -54 7 -24 21 19 21 19 14 -1 -5 -11 -11 -39
-13 -62 -5 -36 -3 -43 11 -43 19 0 71 48 62 57 -4 4 -12 1 -18 -5 -23 -23 -27
-12 -11 33 26 76 0 99 -52 45z"/>
<path d="M1512 385 c-71 -60 -19 -172 55 -120 19 13 22 13 27 0 8 -23 34 -18
62 12 26 28 25 45 -1 23 -24 -20 -28 -5 -12 50 l15 50 -32 0 c-17 -1 -43 2
-57 5 -19 5 -33 0 -57 -20z m76 -7 c18 -18 14 -52 -9 -82 -17 -21 -24 -24 -40
-16 -25 14 -24 51 2 84 23 29 30 31 47 14z"/>
<path d="M371 93 c0 -21 3 -31 6 -23 3 8 11 18 17 22 8 5 7 8 -1 8 -19 0 -16
18 5 23 13 4 11 5 -5 6 -20 1 -23 -4 -22 -36z"/>
<path d="M462 94 c2 -27 8 -40 21 -42 9 -2 17 1 17 7 0 6 -7 11 -15 11 -11 0
-14 7 -11 25 3 13 0 27 -5 31 -7 4 -9 -9 -7 -32z"/>
<path d="M562 114 c-19 -34 8 -71 44 -57 24 9 15 67 -13 71 -12 2 -25 -4 -31
-14z m46 -22 c3 -17 -2 -22 -17 -22 -14 0 -21 6 -21 18 0 38 33 41 38 4z"/>
<path d="M680 93 c0 -27 3 -34 9 -24 7 11 13 12 23 4 10 -9 13 -5 13 20 0 26
-5 33 -22 35 -20 3 -23 -1 -23 -35z m31 14 c-1 -12 -15 -9 -19 4 -3 6 1 10 8
8 6 -3 11 -8 11 -12z"/>
<path d="M793 95 c0 -22 2 -30 4 -17 2 12 2 30 0 40 -3 9 -5 -1 -4 -23z"/>
<path d="M860 114 c0 -9 8 -23 18 -30 16 -13 16 -13 0 -14 -22 0 -24 -20 -3
-20 23 0 31 31 12 45 -22 16 -21 22 1 28 13 4 11 5 -5 6 -15 1 -23 -5 -23 -15z"/>
<path d="M957 122 c6 -4 13 -21 16 -37 l4 -30 2 32 c0 17 7 34 14 36 6 3 -1 6
-18 6 -16 0 -25 -3 -18 -7z"/>
<path d="M1050 100 c0 -18 7 -33 18 -38 28 -15 42 -3 41 36 l-2 37 -6 -33 c-8
-43 -25 -46 -29 -4 -4 40 -22 43 -22 2z"/>
<path d="M1170 96 c0 -41 12 -51 40 -36 24 13 27 55 4 64 -34 13 -44 6 -44
-28z m45 -2 c0 -10 -7 -20 -16 -22 -13 -2 -15 3 -11 23 5 29 27 29 27 -1z"/>
<path d="M1293 95 c0 -22 2 -30 4 -17 2 12 2 30 0 40 -3 9 -5 -1 -4 -23z"/>
<path d="M1367 123 c-12 -11 -8 -50 7 -62 29 -24 65 14 46 50 -10 19 -40 26
-53 12z m41 -31 c3 -17 -2 -22 -17 -22 -14 0 -21 6 -21 18 0 38 33 41 38 4z"/>
</g>
</svg>
